<mxfile host="app.diagrams.net" modified="2020-11-11T13:46:30.537Z" agent="5.0 (Windows NT 10.0; Win64; x64) AppleWebKit/537.36 (KHTML, like Gecko) Chrome/85.0.4183.102 YaBrowser/20.9.3.126 Yowser/2.5 Safari/537.36" etag="H7fL0HgJILmJNOn3aJXv" version="13.9.6" type="github">
  <diagram id="C5RBs43oDa-KdzZeNtuy" name="Page-1">
    <mxGraphModel dx="2370" dy="1315" grid="1" gridSize="10" guides="1" tooltips="1" connect="1" arrows="1" fold="1" page="1" pageScale="1" pageWidth="827" pageHeight="1169" math="0" shadow="0">
      <root>
        <mxCell id="WIyWlLk6GJQsqaUBKTNV-0" />
        <mxCell id="WIyWlLk6GJQsqaUBKTNV-1" parent="WIyWlLk6GJQsqaUBKTNV-0" />
        <mxCell id="ar77lbCRcMSKX_j9h_aJ-3" value="" style="edgeStyle=orthogonalEdgeStyle;rounded=0;orthogonalLoop=1;jettySize=auto;html=1;" edge="1" parent="WIyWlLk6GJQsqaUBKTNV-1" source="WIyWlLk6GJQsqaUBKTNV-3" target="ar77lbCRcMSKX_j9h_aJ-2">
          <mxGeometry relative="1" as="geometry" />
        </mxCell>
        <mxCell id="WIyWlLk6GJQsqaUBKTNV-3" value="Клиент сделал заказ" style="rounded=1;whiteSpace=wrap;html=1;fontSize=12;glass=0;strokeWidth=1;shadow=0;" parent="WIyWlLk6GJQsqaUBKTNV-1" vertex="1">
          <mxGeometry x="320" y="70" width="160" height="40" as="geometry" />
        </mxCell>
        <mxCell id="ar77lbCRcMSKX_j9h_aJ-6" value="" style="edgeStyle=orthogonalEdgeStyle;rounded=0;orthogonalLoop=1;jettySize=auto;html=1;" edge="1" parent="WIyWlLk6GJQsqaUBKTNV-1" source="WIyWlLk6GJQsqaUBKTNV-6" target="ar77lbCRcMSKX_j9h_aJ-5">
          <mxGeometry relative="1" as="geometry" />
        </mxCell>
        <mxCell id="ar77lbCRcMSKX_j9h_aJ-8" value="" style="edgeStyle=orthogonalEdgeStyle;rounded=0;orthogonalLoop=1;jettySize=auto;html=1;" edge="1" parent="WIyWlLk6GJQsqaUBKTNV-1" source="WIyWlLk6GJQsqaUBKTNV-6" target="ar77lbCRcMSKX_j9h_aJ-7">
          <mxGeometry relative="1" as="geometry" />
        </mxCell>
        <mxCell id="ar77lbCRcMSKX_j9h_aJ-10" value="" style="edgeStyle=orthogonalEdgeStyle;rounded=0;orthogonalLoop=1;jettySize=auto;html=1;" edge="1" parent="WIyWlLk6GJQsqaUBKTNV-1" source="WIyWlLk6GJQsqaUBKTNV-6" target="ar77lbCRcMSKX_j9h_aJ-9">
          <mxGeometry relative="1" as="geometry" />
        </mxCell>
        <mxCell id="WIyWlLk6GJQsqaUBKTNV-6" value="Статус подписки" style="rhombus;whiteSpace=wrap;html=1;shadow=0;fontFamily=Helvetica;fontSize=12;align=center;strokeWidth=1;spacing=6;spacingTop=-4;" parent="WIyWlLk6GJQsqaUBKTNV-1" vertex="1">
          <mxGeometry x="350" y="250" width="100" height="80" as="geometry" />
        </mxCell>
        <mxCell id="ar77lbCRcMSKX_j9h_aJ-4" value="" style="edgeStyle=orthogonalEdgeStyle;rounded=0;orthogonalLoop=1;jettySize=auto;html=1;" edge="1" parent="WIyWlLk6GJQsqaUBKTNV-1" source="ar77lbCRcMSKX_j9h_aJ-2" target="WIyWlLk6GJQsqaUBKTNV-6">
          <mxGeometry relative="1" as="geometry" />
        </mxCell>
        <mxCell id="ar77lbCRcMSKX_j9h_aJ-2" value="Спрашиваем подписан ли он на бота в Viber&amp;nbsp;" style="shape=process;whiteSpace=wrap;html=1;backgroundOutline=1;" vertex="1" parent="WIyWlLk6GJQsqaUBKTNV-1">
          <mxGeometry x="340" y="140" width="120" height="60" as="geometry" />
        </mxCell>
        <mxCell id="ar77lbCRcMSKX_j9h_aJ-12" value="" style="edgeStyle=orthogonalEdgeStyle;rounded=0;orthogonalLoop=1;jettySize=auto;html=1;" edge="1" parent="WIyWlLk6GJQsqaUBKTNV-1" source="ar77lbCRcMSKX_j9h_aJ-5" target="ar77lbCRcMSKX_j9h_aJ-11">
          <mxGeometry relative="1" as="geometry" />
        </mxCell>
        <mxCell id="ar77lbCRcMSKX_j9h_aJ-5" value="Не подписался" style="whiteSpace=wrap;html=1;shadow=0;strokeWidth=1;spacing=6;spacingTop=-4;" vertex="1" parent="WIyWlLk6GJQsqaUBKTNV-1">
          <mxGeometry x="160" y="260" width="120" height="60" as="geometry" />
        </mxCell>
        <mxCell id="ar77lbCRcMSKX_j9h_aJ-14" value="" style="edgeStyle=orthogonalEdgeStyle;rounded=0;orthogonalLoop=1;jettySize=auto;html=1;" edge="1" parent="WIyWlLk6GJQsqaUBKTNV-1" source="ar77lbCRcMSKX_j9h_aJ-7" target="ar77lbCRcMSKX_j9h_aJ-13">
          <mxGeometry relative="1" as="geometry" />
        </mxCell>
        <mxCell id="ar77lbCRcMSKX_j9h_aJ-7" value="Подписан" style="whiteSpace=wrap;html=1;shadow=0;strokeWidth=1;spacing=6;spacingTop=-4;" vertex="1" parent="WIyWlLk6GJQsqaUBKTNV-1">
          <mxGeometry x="580" y="260" width="120" height="60" as="geometry" />
        </mxCell>
        <mxCell id="ar77lbCRcMSKX_j9h_aJ-18" value="" style="edgeStyle=orthogonalEdgeStyle;rounded=0;orthogonalLoop=1;jettySize=auto;html=1;" edge="1" parent="WIyWlLk6GJQsqaUBKTNV-1" source="ar77lbCRcMSKX_j9h_aJ-9" target="ar77lbCRcMSKX_j9h_aJ-17">
          <mxGeometry relative="1" as="geometry" />
        </mxCell>
        <mxCell id="ar77lbCRcMSKX_j9h_aJ-9" value="Подписался" style="whiteSpace=wrap;html=1;shadow=0;strokeWidth=1;spacing=6;spacingTop=-4;" vertex="1" parent="WIyWlLk6GJQsqaUBKTNV-1">
          <mxGeometry x="340" y="420" width="120" height="60" as="geometry" />
        </mxCell>
        <mxCell id="ar77lbCRcMSKX_j9h_aJ-11" value="Конец работы" style="whiteSpace=wrap;html=1;shadow=0;strokeWidth=1;spacing=6;spacingTop=-4;" vertex="1" parent="WIyWlLk6GJQsqaUBKTNV-1">
          <mxGeometry x="160" y="400" width="120" height="60" as="geometry" />
        </mxCell>
        <mxCell id="ar77lbCRcMSKX_j9h_aJ-16" value="" style="edgeStyle=orthogonalEdgeStyle;rounded=0;orthogonalLoop=1;jettySize=auto;html=1;" edge="1" parent="WIyWlLk6GJQsqaUBKTNV-1" source="ar77lbCRcMSKX_j9h_aJ-13" target="ar77lbCRcMSKX_j9h_aJ-15">
          <mxGeometry relative="1" as="geometry" />
        </mxCell>
        <mxCell id="ar77lbCRcMSKX_j9h_aJ-13" value="Получаем Viber ID по его номеру телефона который использовался в заказе" style="whiteSpace=wrap;html=1;shadow=0;strokeWidth=1;spacing=6;spacingTop=-4;" vertex="1" parent="WIyWlLk6GJQsqaUBKTNV-1">
          <mxGeometry x="550" y="360" width="180" height="60" as="geometry" />
        </mxCell>
        <mxCell id="ar77lbCRcMSKX_j9h_aJ-34" value="" style="edgeStyle=orthogonalEdgeStyle;rounded=0;orthogonalLoop=1;jettySize=auto;html=1;" edge="1" parent="WIyWlLk6GJQsqaUBKTNV-1" source="ar77lbCRcMSKX_j9h_aJ-15" target="ar77lbCRcMSKX_j9h_aJ-33">
          <mxGeometry relative="1" as="geometry" />
        </mxCell>
        <mxCell id="ar77lbCRcMSKX_j9h_aJ-15" value="Отправляем ему данные о заказе" style="whiteSpace=wrap;html=1;shadow=0;strokeWidth=1;spacing=6;spacingTop=-4;" vertex="1" parent="WIyWlLk6GJQsqaUBKTNV-1">
          <mxGeometry x="550" y="460" width="180" height="60" as="geometry" />
        </mxCell>
        <mxCell id="ar77lbCRcMSKX_j9h_aJ-20" value="" style="edgeStyle=orthogonalEdgeStyle;rounded=0;orthogonalLoop=1;jettySize=auto;html=1;" edge="1" parent="WIyWlLk6GJQsqaUBKTNV-1" source="ar77lbCRcMSKX_j9h_aJ-17" target="ar77lbCRcMSKX_j9h_aJ-19">
          <mxGeometry relative="1" as="geometry" />
        </mxCell>
        <mxCell id="ar77lbCRcMSKX_j9h_aJ-17" value="Получаем его Viber ID" style="whiteSpace=wrap;html=1;shadow=0;strokeWidth=1;spacing=6;spacingTop=-4;" vertex="1" parent="WIyWlLk6GJQsqaUBKTNV-1">
          <mxGeometry x="340" y="560" width="120" height="60" as="geometry" />
        </mxCell>
        <mxCell id="ar77lbCRcMSKX_j9h_aJ-22" value="" style="edgeStyle=orthogonalEdgeStyle;rounded=0;orthogonalLoop=1;jettySize=auto;html=1;" edge="1" parent="WIyWlLk6GJQsqaUBKTNV-1" source="ar77lbCRcMSKX_j9h_aJ-19" target="ar77lbCRcMSKX_j9h_aJ-21">
          <mxGeometry relative="1" as="geometry" />
        </mxCell>
        <mxCell id="ar77lbCRcMSKX_j9h_aJ-23" value="Да&lt;br&gt;" style="edgeLabel;html=1;align=center;verticalAlign=middle;resizable=0;points=[];" vertex="1" connectable="0" parent="ar77lbCRcMSKX_j9h_aJ-22">
          <mxGeometry x="-0.281" y="1" relative="1" as="geometry">
            <mxPoint as="offset" />
          </mxGeometry>
        </mxCell>
        <mxCell id="ar77lbCRcMSKX_j9h_aJ-25" value="" style="edgeStyle=orthogonalEdgeStyle;rounded=0;orthogonalLoop=1;jettySize=auto;html=1;" edge="1" parent="WIyWlLk6GJQsqaUBKTNV-1" source="ar77lbCRcMSKX_j9h_aJ-19" target="ar77lbCRcMSKX_j9h_aJ-24">
          <mxGeometry relative="1" as="geometry" />
        </mxCell>
        <mxCell id="ar77lbCRcMSKX_j9h_aJ-26" value="Нет" style="edgeLabel;html=1;align=center;verticalAlign=middle;resizable=0;points=[];" vertex="1" connectable="0" parent="ar77lbCRcMSKX_j9h_aJ-25">
          <mxGeometry x="0.8444" y="2" relative="1" as="geometry">
            <mxPoint x="-25.33" y="2" as="offset" />
          </mxGeometry>
        </mxCell>
        <mxCell id="ar77lbCRcMSKX_j9h_aJ-19" value="Получили?" style="rhombus;whiteSpace=wrap;html=1;shadow=0;strokeWidth=1;spacing=6;spacingTop=-4;" vertex="1" parent="WIyWlLk6GJQsqaUBKTNV-1">
          <mxGeometry x="360" y="690" width="80" height="80" as="geometry" />
        </mxCell>
        <mxCell id="ar77lbCRcMSKX_j9h_aJ-28" value="" style="edgeStyle=orthogonalEdgeStyle;rounded=0;orthogonalLoop=1;jettySize=auto;html=1;" edge="1" parent="WIyWlLk6GJQsqaUBKTNV-1" source="ar77lbCRcMSKX_j9h_aJ-21" target="ar77lbCRcMSKX_j9h_aJ-27">
          <mxGeometry relative="1" as="geometry" />
        </mxCell>
        <mxCell id="ar77lbCRcMSKX_j9h_aJ-21" value="Записываем в базу и связываем его номер телефона и Viber ID" style="whiteSpace=wrap;html=1;shadow=0;strokeWidth=1;spacing=6;spacingTop=-4;" vertex="1" parent="WIyWlLk6GJQsqaUBKTNV-1">
          <mxGeometry x="180" y="700" width="120" height="60" as="geometry" />
        </mxCell>
        <mxCell id="ar77lbCRcMSKX_j9h_aJ-24" value="Херово" style="whiteSpace=wrap;html=1;shadow=0;strokeWidth=1;spacing=6;spacingTop=-4;" vertex="1" parent="WIyWlLk6GJQsqaUBKTNV-1">
          <mxGeometry x="500" y="700" width="120" height="60" as="geometry" />
        </mxCell>
        <mxCell id="ar77lbCRcMSKX_j9h_aJ-30" value="" style="edgeStyle=orthogonalEdgeStyle;rounded=0;orthogonalLoop=1;jettySize=auto;html=1;" edge="1" parent="WIyWlLk6GJQsqaUBKTNV-1" source="ar77lbCRcMSKX_j9h_aJ-27" target="ar77lbCRcMSKX_j9h_aJ-29">
          <mxGeometry relative="1" as="geometry" />
        </mxCell>
        <mxCell id="ar77lbCRcMSKX_j9h_aJ-27" value="Получаем Viber ID по его номеру телефона который использовался в заказе" style="whiteSpace=wrap;html=1;shadow=0;strokeWidth=1;spacing=6;spacingTop=-4;" vertex="1" parent="WIyWlLk6GJQsqaUBKTNV-1">
          <mxGeometry x="140" y="840" width="200" height="60" as="geometry" />
        </mxCell>
        <mxCell id="ar77lbCRcMSKX_j9h_aJ-32" value="" style="edgeStyle=orthogonalEdgeStyle;rounded=0;orthogonalLoop=1;jettySize=auto;html=1;" edge="1" parent="WIyWlLk6GJQsqaUBKTNV-1" source="ar77lbCRcMSKX_j9h_aJ-29" target="ar77lbCRcMSKX_j9h_aJ-31">
          <mxGeometry relative="1" as="geometry" />
        </mxCell>
        <mxCell id="ar77lbCRcMSKX_j9h_aJ-29" value="&lt;span&gt;Отправляем ему данные о заказе&lt;/span&gt;" style="whiteSpace=wrap;html=1;" vertex="1" parent="WIyWlLk6GJQsqaUBKTNV-1">
          <mxGeometry x="180" y="930" width="120" height="60" as="geometry" />
        </mxCell>
        <mxCell id="ar77lbCRcMSKX_j9h_aJ-31" value="Конец работы" style="whiteSpace=wrap;html=1;" vertex="1" parent="WIyWlLk6GJQsqaUBKTNV-1">
          <mxGeometry x="180" y="1030" width="120" height="60" as="geometry" />
        </mxCell>
        <mxCell id="ar77lbCRcMSKX_j9h_aJ-33" value="Конец работы" style="whiteSpace=wrap;html=1;shadow=0;strokeWidth=1;spacing=6;spacingTop=-4;" vertex="1" parent="WIyWlLk6GJQsqaUBKTNV-1">
          <mxGeometry x="580" y="555" width="120" height="60" as="geometry" />
        </mxCell>
      </root>
    </mxGraphModel>
  </diagram>
</mxfile>
